PathFileType	4	(X/Y/Z)	C:\Users\chris\Documents\GitHub\baseballds\vids\pitch5_Sports2D\pitch5_Sports2D_px_person06.trc
DataRate	CameraRate	NumFrames	NumMarkers	Units	OrigDataRate	OrigDataStartFrame	OrigNumFrames
30	30	10	22	m	30	93	149
Frame#	Time	Hip			RHip			RKnee			RAnkle			RBigToe			RSmallToe			RHeel			LHip			LKnee			LAnkle			LBigToe			LSmallToe			LHeel			Neck			Head			Nose			RShoulder			RElbow			RWrist			LShoulder			LElbow			LWrist		
		X1	Y1	Z1	X2	Y2	Z2	X3	Y3	Z3	X4	Y4	Z4	X5	Y5	Z5	X6	Y6	Z6	X7	Y7	Z7	X8	Y8	Z8	X9	Y9	Z9	X10	Y10	Z10	X11	Y11	Z11	X12	Y12	Z12	X13	Y13	Z13	X14	Y14	Z14	X15	Y15	Z15	X16	Y16	Z16	X17	Y17	Z17	X18	Y18	Z18	X19	Y19	Z19	X20	Y20	Z20	X21	Y21	Z21	X22	Y22	Z22
93	3.1	1138.222272343948	558.0900263812031	0.0	1132.4471861294207	556.4812163278012	0.0	1125.502719705811	652.4653580702377	0.0	1088.8465117777193	738.8934571618512	0.0	1123.7995302534207	759.9271321690942	0.0	1115.8434044681171	763.2287497462974	0.0	1075.9891108758977	753.7478585801463	0.0	1145.5247071793776	556.474364907163	0.0	1164.1829945422319	649.1446970134789	0.0	1181.1259512466095	744.543068229902	0.0	1223.6170897524037	761.4515133592897	0.0	1220.1972134937691	758.985276589385	0.0	1176.1172366639823	759.4781705655969	0.0	1152.1137030377242	414.98854217961224	0.0	1160.3212850524283	349.6165676163923	0.0	1181.843444210121	387.329806925007	0.0	1143.2707628230273	436.78058319187994	0.0	1160.6321351558101	497.34716384757974	0.0	1209.8377700686071	473.12020144364965	0.0	1155.7799805461505	434.2421037758278	0.0	1185.5165660529572	488.7466064925474	0.0	1228.2439139197925	476.5492377686164	0.0
94	3.1333333333333333	1141.883015650179	558.4783415919936	0.0	1137.9069859900374	556.6620474696258	0.0	1129.9957965630927	653.5781045372054	0.0	1089.5779681827287	739.4801509300771	0.0	1123.6327306199369	760.4897907482798	0.0	1116.1519174547257	763.5768579224266	0.0	1076.5763908151857	753.8954976410178	0.0	1147.735014249291	556.6669071576146	0.0	1164.9616012921858	651.1960741130479	0.0	1182.0874560936818	747.5567566701191	0.0	1222.4150135684422	762.0461817191438	0.0	1218.9906845374196	760.3718516044701	0.0	1177.7061697444863	762.3993515858655	0.0	1155.3205930622853	417.0112562050532	0.0	1164.2416646289957	352.04542612002916	0.0	1185.4387211790417	389.9873834553259	0.0	1149.7512346141816	437.87768976991964	0.0	1169.714977010535	497.957876462281	0.0	1215.4838997665493	473.35746438576297	0.0	1154.1938381032976	435.34941233664114	0.0	1186.3340776121383	495.31161918835517	0.0	1232.9232307164723	491.81719207059075	0.0
95	3.1666666666666665	1146.714613335151	559.5242024647331	0.0	1144.3965256723932	557.5588379460067	0.0	1134.74229728501	654.8706528231924	0.0	1090.171492415199	740.143338561895	0.0	1123.8832867307524	761.1187857091334	0.0	1116.0778762241466	763.9765261666512	0.0	1076.8183535705082	754.1465843149808	0.0	1151.2055360882478	557.5788118429339	0.0	1166.8556585778845	652.9993545695621	0.0	1183.541667877693	750.7693418682181	0.0	1221.0812660476697	763.4400276844832	0.0	1217.5555222278513	762.0792471875354	0.0	1178.775731245913	765.2455845623992	0.0	1158.6611880128244	418.93942210478184	0.0	1168.461982431981	354.55610807362757	0.0	1189.1998736143714	392.6971498792882	0.0	1155.8346595343967	439.0981842719825	0.0	1178.4916238002688	498.01216432714466	0.0	1219.9648258061789	472.72110248281575	0.0	1152.3063956124101	436.77546405401563	0.0	1183.9026883647768	503.9315837255761	0.0	1232.5239342946302	513.8661666879103	0.0
96	3.2	1151.9754660065055	560.9947959743479	0.0	1151.1605636610514	558.8891410066444	0.0	1139.4718741935505	656.6116635885567	0.0	1090.4159529843264	740.3040196104965	0.0	1123.6703578478835	761.8667140909852	0.0	1115.3709817788495	764.1034203086074	0.0	1076.701306984126	753.7132266386609	0.0	1155.3808771778533	558.9195661010324	0.0	1170.0073898423295	654.6691880707965	0.0	1185.5648156859445	753.1623400368795	0.0	1220.2337533946038	765.697155786647	0.0	1216.8281849988152	764.2137000393594	0.0	1179.7981778850042	767.0134544932081	0.0	1162.3985329367133	420.7439157535068	0.0	1172.4225011159613	356.97424319605597	0.0	1192.9492897654686	394.63441521471157	0.0	1161.5972914769159	440.55453293969737	0.0	1187.3809656305798	497.453205820133	0.0	1224.4064231602867	470.2083538045216	0.0	1152.2086250408872	438.55506945629133	0.0	1178.6635699134906	510.5634638565693	0.0	1226.6618356194517	537.0897257999404	0.0
97	3.2333333333333334	1157.0133208745879	561.9088260128068	0.0	1157.3458556796859	559.9529263339556	0.0	1144.6551102018798	658.4746121841783	0.0	1091.1184997040182	739.512099991008	0.0	1122.8543129537325	762.6207494103658	0.0	1114.717346388931	763.978158063628	0.0	1077.0060657319912	752.0511797652812	0.0	1159.6227569442294	559.9195596179134	0.0	1174.2343974032945	656.2033999961099	0.0	1187.2602470746624	754.1587451754158	0.0	1219.7671022735753	768.1152946740394	0.0	1216.7448368792373	766.2101309192202	0.0	1180.8199288440733	767.3175898735425	0.0	1166.6719194768464	422.28720023248513	0.0	1176.0234757857584	358.9694110659026	0.0	1196.6857554364492	395.72539550659786	0.0	1167.5566938606974	441.87724381235853	0.0	1196.1755624408388	497.1244769944119	0.0	1229.3367807048753	467.1550442495249	0.0	1153.9443972551203	439.9838943452826	0.0	1174.0231308677578	511.07990072832575	0.0	1220.4961813377606	545.9305412107087	0.0
98	3.2666666666666666	1162.0473722926897	561.9956191107402	0.0	1162.562067196133	560.7281728815038	0.0	1151.472103054753	659.862746264454	0.0	1093.2285204754126	737.6384034388307	0.0	1122.4175968920524	763.3396402772296	0.0	1114.5853163774127	764.033738088432	0.0	1078.4899101046028	748.7895920503701	0.0	1164.4490403486507	560.5105397823834	0.0	1179.0556133125988	657.4109970351072	0.0	1188.0984194302512	754.1902024012177	0.0	1220.0431151293037	769.8807299190744	0.0	1217.0340478532692	767.3158775078637	0.0	1181.1807937256785	766.9431692474236	0.0	1171.6009863136792	423.03250186544665	0.0	1179.81344459311	360.03569940856397	0.0	1200.8269110331976	395.8532985889469	0.0	1173.7425211496195	442.4857011878744	0.0	1204.0294328611456	497.1342884611363	0.0	1235.2668180748979	465.2314269105252	0.0	1157.3557326389284	440.357873754458	0.0	1177.6468131170484	505.8590382616484	0.0	1221.3009476039804	526.3789437622816	0.0
99	3.3	1167.1066034723747	561.8339253710694	0.0	1167.0037966370944	561.4341548985278	0.0	1160.7809791607338	660.6704600606769	0.0	1097.016738891491	734.7306625969322	0.0	1123.3801358631047	764.1503738684621	0.0	1115.0115565857216	764.3400496497967	0.0	1081.4653050817737	743.645213786517	0.0	1169.6673606413378	560.919136487537	0.0	1183.8617181600425	658.1318660486766	0.0	1188.4043027558723	754.0443281074758	0.0	1221.0937451647246	770.8639109414166	0.0	1217.4955467866039	767.7699088540309	0.0	1180.6350888496877	766.8520254483662	0.0	1176.9703304119016	422.6207217081708	0.0	1184.3565095368117	360.14252442358145	0.0	1205.5842099785614	395.16014874189705	0.0	1179.850993928892	442.17446976286556	0.0	1210.381047042953	496.91008746205983	0.0	1241.8937832190036	464.89938583380336	0.0	1161.8865292884325	439.7925756809563	0.0	1186.4284988670788	500.0597420588013	0.0	1221.7870339906315	496.85170314898113	0.0
100	3.3333333333333335	1171.41836087596	561.5977854200681	0.0	1170.9334920591666	561.7103340773331	0.0	1172.2304931344333	661.0462614137102	0.0	1102.2303040106367	730.7880725648484	0.0	1126.2871529382537	764.8319755779399	0.0	1116.8198664759566	764.3380847992328	0.0	1086.0401340519998	737.1590910349905	0.0	1173.325621959535	560.6570659102225	0.0	1188.3630342225247	658.2889888214329	0.0	1188.6149802312605	754.0369027170747	0.0	1222.130421814738	771.5566451003485	0.0	1217.8497645576767	768.3652612469631	0.0	1179.955605285321	767.289079850688	0.0	1181.8809802666624	421.78093553955796	0.0	1189.668514823406	359.96957087432133	0.0	1210.6072827297514	394.95285793503126	0.0	1185.6347188318096	441.46122121826977	0.0	1215.4317934718401	496.55816871327505	0.0	1247.8153883427344	465.3172518033583	0.0	1165.7629535866747	439.11943879902634	0.0	1183.8214724892725	498.4026249096544	0.0	1202.4951476281044	496.94325705175754	0.0
101	3.3666666666666667	1174.6455380039822	561.1577943433501	0.0	1174.6211014345995	561.2715121135654	0.0	1184.683902167234	660.8921493271328	0.0	1108.7765585801203	726.0491845470415	0.0	1131.193358854948	764.6857926303786	0.0	1121.0915104791277	763.3553481151846	0.0	1092.3697439202338	730.6178623927459	0.0	1174.0639607749408	559.3433285974784	0.0	1192.2403893189812	657.9769538768483	0.0	1188.8414839766835	754.2950979298403	0.0	1222.9020785009113	772.3806455044919	0.0	1217.991736879611	769.1838018864537	0.0	1179.8921006545909	768.0298576196966	0.0	1185.840848364604	421.7173036888707	0.0	1195.3548835984257	360.31295821270396	0.0	1215.5332845326084	396.169796119205	0.0	1190.7245777036076	441.0927558137572	0.0	1219.6997803358001	496.39976211587714	0.0	1252.1684968735485	465.3102024207093	0.0	1167.9826947740762	439.075512803213	0.0	1166.0750355699429	500.3096655913909	0.0	1163.750867359552	528.7821499735869	0.0
102	3.4	1177.564975093396	560.8017263193807	0.0	1178.5610865131496	560.4766728014027	0.0	1196.890347199646	660.1072834224657	0.0	1117.1205758010876	721.599853611545	0.0	1137.3866171344002	763.6129161248366	0.0	1127.631856807086	761.3699468312841	0.0	1100.562647846416	725.1332990692401	0.0	1173.15143648141	557.672185885062	0.0	1194.3206038679302	657.4669004709061	0.0	1189.0725250437208	755.0416208456148	0.0	1223.9652841947957	773.1255119971936	0.0	1218.056534620157	769.6563538020015	0.0	1180.5350285407858	768.7846423633391	0.0	1189.5651044997094	422.5931981851493	0.0	1201.0268215863175	361.0462966508095	0.0	1220.3274370157253	397.7142627264637	0.0	1195.0345617009216	441.30107863723225	0.0	1223.233681771934	496.3523697412347	0.0	1254.9464089930316	465.1270525324811	0.0	1169.6008595831045	439.59238814727144	0.0	1148.9010116073066	501.5283932133849	0.0	1129.6240807188506	555.566547020527	0.0
